<?xml version="1.0" encoding="UTF-8"?>
<svg width="28px" height="28px" viewBox="0 0 28 28" version="1.1" xmlns="http://www.w3.org/2000/svg" xmlns:xlink="http://www.w3.org/1999/xlink">
    <title>编组 2备份 15</title>
    <g id="设计稿" stroke="none" stroke-width="1" fill="none" fill-rule="evenodd">
        <g id="1-首页" transform="translate(-40.000000, -66.000000)">
            <g id="编组-2备份-15" transform="translate(40.000000, 66.000000)">
                <rect id="矩形备份-4" x="0" y="0" width="28" height="28"></rect>
                <path d="M15.9660441,3.06296036 L16.0282568,3.16486261 C16.8668672,4.59150972 17.7730908,5.58435882 18.7496937,6.14820074 C19.6670592,6.67784196 20.7642897,6.90797509 22.0413854,6.83860013 L22.119811,6.83153263 L22.2910344,6.82141421 C23.1196516,6.83190468 23.9154514,7.26017807 24.3553257,8.02206265 C24.7958192,8.78501981 24.7681187,9.68981046 24.3613688,10.4037423 L24.2788717,10.5369496 L24.2097577,10.6370663 C24.047064,10.8580236 23.8438449,11.0539087 23.6033447,11.2126139 L23.4800028,11.2888121 C22.3362011,11.9491863 20.8736276,11.5572909 20.2132534,10.4134892 C18.2321307,6.98208414 13.84441,5.80639793 10.4130049,7.78752059 C6.98159982,9.76864325 5.8059136,14.1563639 7.78703626,17.587769 C9.76815892,21.0191741 14.1558796,22.1948603 17.5872847,20.2137377 C18.3156391,19.7932221 19.0714769,19.0861554 19.5987707,18.5085155 L19.5688209,18.5288772 C18.893804,17.6268936 18.2055591,17.0317651 17.5040861,16.7434917 C16.849378,16.4744365 15.7882901,16.3544529 14.3208223,16.3835409 L14.0001448,16.3920557 C12.6793964,16.3920557 11.6087182,15.3213776 11.6087182,14.0006291 C11.6087182,12.6798807 12.6793964,11.6092025 14.0001448,11.6092025 C14.8863087,11.6092025 15.6598956,12.0912024 16.073039,12.8073356 L15.9675293,12.6447132 C16.7871373,13.9449243 17.5662531,14.8265538 18.3048766,15.2896016 C19.0435001,15.7526494 20.4403916,16.1484656 22.495551,16.4770503 C23.2252051,16.5373684 23.9296453,16.9280584 24.354299,17.5759557 L24.3972897,17.6604527 C25.0586241,18.8059176 24.6667287,20.2684911 23.522927,20.9288654 C23.0862927,21.1809563 22.6032055,21.2797052 22.1360236,21.2418209 L22.1743862,21.2383617 C20.5450758,21.355962 19.3679896,21.6240119 18.6431276,22.0425112 C17.8137215,22.521369 16.9947353,23.4073421 16.1861688,24.7004307 C15.984527,25.1107104 15.6634879,25.4665147 15.2387823,25.7117185 C14.0949806,26.3720928 12.632407,25.9801974 11.9720328,24.8363957 C10.9048965,23.3119588 10.0194555,22.3451268 9.31126115,21.9362506 C8.60306681,21.5273744 7.40252145,21.2738008 5.70962507,21.1755297 C4.88553105,21.1719819 4.08618954,20.7434208 3.6449639,19.9791956 L3.58782033,19.8743667 C3.2255503,19.1690427 3.24756272,18.3588029 3.58670054,17.6942807 L3.64182908,17.5931008 L3.61687818,17.641908 C4.4387286,16.1203308 4.86201199,14.8949818 4.88672835,13.9658608 C4.91144471,13.0367398 4.48297433,11.8301019 3.6013172,10.3459473 C2.94178428,9.1948975 3.33373421,7.73266707 4.47736261,7.07239291 C4.9173729,6.81835285 5.40455736,6.72003524 5.8750998,6.76034059 L6.07117624,6.75546959 C7.59374501,6.70443879 8.70951106,6.47426331 9.41847437,6.06494315 C10.1468698,5.64440383 10.9303816,4.75502418 11.7690098,3.39680418 C11.9666329,2.94635173 12.303893,2.55374349 12.7615073,2.28953972 C13.8706484,1.64917684 15.2795345,1.99827594 15.9660441,3.06296036 Z M13.9809397,13.2234375 C13.5369545,13.2234375 13.1770334,13.5833586 13.1770334,14.0273438 C13.1770334,14.4713289 13.5369545,14.83125 13.9809397,14.83125 C14.4249248,14.83125 14.7848459,14.4713289 14.7848459,14.0273438 C14.7848459,13.5833586 14.4249248,13.2234375 13.9809397,13.2234375 Z" id="形状结合备份-7" fill="#3A63F2" fill-rule="nonzero"></path>
            </g>
        </g>
    </g>
</svg>